<svg id="ehS7l3yVjeF1" xmlns="http://www.w3.org/2000/svg" xmlns:xlink="http://www.w3.org/1999/xlink" viewBox="0 0 20 20" shape-rendering="geometricPrecision" text-rendering="geometricPrecision"><path d="M31.4,21.63h60.68v-13.95c.015097-.072556.015097-.147444,0-.22-.031493-.070671-.075538-.135045-.13-.19v0c-.054955-.054462-.119329-.098507-.19-.13-.075924-.015088-.154076-.015088-.23,0h-83.85c-.07246-.016005-.14754-.016005-.22,0-.076577.035956-.147357.083143-.21.14v0c-.044648.054742-.081653.115296-.11.18-.015097.072556-.015097.147444,0,.22v83.8c-.015097.072556-.015097.147444,0,.22v0c.032939.064418.073206.124818.12.18.062223.054791.133212.098737.21.13v0c.066255.010481.133745.010481.2,0h16.06v-62.7c.003398-2.040066.820444-3.994498,2.27-5.43v0c.705625-.698843,1.541377-1.252614,2.46-1.63.926186-.381938,1.918153-.578973,2.92-.58ZM84.07,53.07c2.007555-2.007555,5.262445-2.007555,7.27,0s2.007555,5.262445,0,7.27l-10.8,10.8l10.8,10.79c2.010316,2.007555,2.012555,5.264683.005,7.275s-5.264683,2.012555-7.275.005l-10.8-10.8-10.79,10.8c-2.010316,2.007555-5.267445,2.005316-7.275-.005s-2.005317-5.267445.005-7.275L66,71.14L55.21,60.34c-2.007555-2.007555-2.007555-5.262445,0-7.27s5.262445-2.007555,7.27,0l10.79,10.8l10.8-10.8ZM99.15,21.63h16c1.004985.002028,2.000033.199,2.93.58.932669.391283,1.781409.958241,2.5,1.67v0c1.419594,1.435097,2.217107,3.371401,2.22,5.39v83.8c-.006387,3.105676-1.880247,5.902659-4.75,7.09-.927908.388921-1.923882.589475-2.93.59h-83.72c-1.002993.000561-1.995909-.200063-2.92-.59-1.8864-.779205-3.386268-2.275476-4.17-4.16-.386509-.924799-.583727-1.917689-.58-2.92v-14h-16c-1.006118-.000525-2.002092-.201079-2.93-.59-2.867958-1.153994-4.761136-3.918823-4.8-7.01v-83.8c.002028-1.004985.199-2.000033.58-2.93.391283-.932669.958241-1.781409,1.67-2.5.718988-.708757,1.567789-1.272361,2.5-1.66.927908-.388921,1.923882-.589475,2.93-.59h83.79c1.005187-.00002,2.000627.197029,2.93.58.930698.394943,1.778783.961463,2.5,1.67c1.43942,1.440664,2.248596,3.393474,2.25,5.43v14Zm16,7.07h-83.75c-.072806.001177-.144476.018241-.21.05-.079134.03125-.150718.078972-.21.14v0c-.052413.060304-.096168.127618-.13.2-.016005.07246-.016005.14754,0,.22v83.8c-.015097.072556-.015097.147444,0,.22.033823.074793.081302.142619.14.2v0c.053518.04896.114223.089429.18.12.073024.00953.146976.00953.22,0h83.8c.072965.010394.147035.010394.22,0v0c.066118-.034163.126782-.077976.18-.13.052267-.056734.096054-.12073.13-.19v0c.010481-.066255.010481-.133745,0-.2v-83.82c.015097-.072556.015097-.147444,0-.22v0c-.030759-.062655-.071262-.120035-.12-.17-.062643-.056857-.133423-.104044-.21-.14-.068995-.031971-.143964-.049009-.22-.05Z" transform="matrix(.144417 0 0 0.143758 1.132796 1.320611)"/></svg>
