<svg id="enlK8mM1Psg1" xmlns="http://www.w3.org/2000/svg" xmlns:xlink="http://www.w3.org/1999/xlink" viewBox="0 0 20 20" shape-rendering="geometricPrecision" text-rendering="geometricPrecision"><g transform="matrix(.0176 0 0 0.0177 1.2 1.15)"><path d="M873.3,754.8h-511.4c-64.4,0-116.7-52.2-116.7-116.7v-511.4C245.2,62.2,297.4,10,361.9,10h511.5C937.8,10,990,62.2,990,126.7v511.5c0,64.4-52.2,116.6-116.7,116.6Zm38.3-596.4c0-38.7-31.3-70-70-70h-448c-38.7,0-70,31.3-70,70v448c0,38.7,31.3,70,70,70h448c38.7,0,70-31.3,70-70v-448ZM586.3,527.9c-4.7,4.7-10.7,7-16.8,7.8-11.2,6.2-25.4,5-34.8-4.5L409.9,406.6c-11.5-11.5-11.5-30.1,0-41.6l13.9-13.9c11.5-11.5,30.1-11.5,41.6,0l93.4,93.4L766.5,236.8c11.5-11.5,30.1-11.5,41.6,0L822,250.7c11.5,11.5,11.5,30.1,0,41.6L586.3,527.9ZM794,794c21.6,0,39.2,17.6,39.2,39.2s-17.5,39.2-39.2,39.2h-568.4c-54.1,0-98-43.9-98-98v-568.4c0-21.7,17.5-39.2,39.2-39.2c21.6,0,39.2,17.5,39.2,39.2v529.2c0,32.5,26.3,58.8,58.8,58.8h529.2ZM637.2,911.6c21.6,0,39.2,17.6,39.2,39.2s-17.6,39.2-39.2,39.2h-529.2c-54.1,0-98-43.9-98-98v-529.2c0-21.6,17.6-39.2,39.2-39.2c21.7,0,39.2,17.5,39.2,39.2v490c0,32.5,26.3,58.8,58.8,58.8h490Z"/></g></svg>
