<?xml version="1.0" encoding="UTF-8"?>
<svg xmlns="http://www.w3.org/2000/svg" xmlns:xlink="http://www.w3.org/1999/xlink" width="16px" height="17px" viewBox="0 0 16 16" version="1.1">
<g id="surface1">
<path style=" stroke:none;fill-rule:nonzero;fill:rgb(0%,0%,0%);fill-opacity:1;" d="M 2.179688 7.714844 C 2.179688 8.292969 1.691406 8.761719 1.089844 8.761719 C 0.488281 8.761719 0 8.292969 0 7.714844 C 0 4.730469 1.808594 2.015625 4.636719 0.757812 C 7.460938 -0.496094 10.789062 -0.0664062 13.164062 1.863281 L 13.164062 1.050781 C 13.164062 0.472656 13.652344 0.00390625 14.253906 0.00390625 C 14.855469 0.00390625 15.34375 0.472656 15.34375 1.050781 L 15.34375 4.347656 C 15.34375 4.921875 14.859375 5.386719 14.261719 5.386719 L 10.953125 5.683594 C 10.359375 5.734375 9.832031 5.3125 9.777344 4.738281 C 9.722656 4.167969 10.164062 3.660156 10.757812 3.609375 L 11.84375 3.515625 C 10.125 2.070312 7.683594 1.726562 5.601562 2.628906 C 3.519531 3.535156 2.183594 5.523438 2.179688 7.714844 Z M 5.265625 10.265625 C 5.863281 10.214844 6.394531 10.636719 6.449219 11.210938 C 6.5 11.785156 6.058594 12.292969 5.460938 12.347656 L 4.09375 12.464844 C 5.800781 13.949219 8.261719 14.328125 10.367188 13.429688 C 12.476562 12.53125 13.832031 10.527344 13.824219 8.316406 C 13.824219 7.738281 14.3125 7.269531 14.914062 7.269531 C 15.515625 7.269531 16.003906 7.738281 16.003906 8.316406 C 16.003906 11.261719 14.246094 13.949219 11.480469 15.226562 C 8.710938 16.507812 5.425781 16.152344 3.023438 14.316406 L 3.023438 14.859375 C 3.023438 15.4375 2.535156 15.902344 1.933594 15.902344 C 1.332031 15.902344 0.84375 15.4375 0.84375 14.859375 L 0.84375 11.601562 C 0.839844 11.0625 1.269531 10.609375 1.832031 10.5625 L 5.261719 10.261719 Z M 5.265625 10.265625 "/>
</g>
</svg>
