<?xml version="1.0" encoding="UTF-8"?>
<svg xmlns="http://www.w3.org/2000/svg" xmlns:xlink="http://www.w3.org/1999/xlink" width="16px" height="16px" viewBox="0 0 16 16" version="1.1">
<g id="surface1">
<path style=" stroke:none;fill-rule:nonzero;fill:rgb(0%,0%,0%);fill-opacity:1;" d="M 6.632812 14.15625 L 6.148438 13.671875 C 5.421875 14.390625 4.800781 14.628906 4.242188 14.628906 C 3.929688 14.628906 3.617188 14.550781 3.292969 14.390625 C 2.972656 14.230469 2.644531 13.988281 2.324219 13.667969 C 2.007812 13.351562 1.761719 13.023438 1.601562 12.699219 C 1.445312 12.378906 1.367188 12.066406 1.367188 11.75 C 1.367188 11.195312 1.605469 10.570312 2.320312 9.847656 C 4.03125 8.136719 4.371094 7.796875 4.375 7.792969 L 3.890625 7.308594 L 3.40625 7.792969 L 8.195312 12.585938 L 8.679688 12.101562 L 8.195312 11.617188 C 8.195312 11.617188 7.855469 11.957031 6.144531 13.667969 L 7.117188 14.640625 C 8.824219 12.929688 9.164062 12.589844 9.167969 12.585938 L 9.652344 12.101562 L 3.894531 6.347656 L 3.410156 6.832031 C 3.40625 6.835938 3.070312 7.171875 1.355469 8.882812 C 0.460938 9.777344 -0.00390625 10.769531 0 11.757812 C 0 12.304688 0.140625 12.832031 0.378906 13.3125 C 0.617188 13.796875 0.953125 14.238281 1.355469 14.640625 C 1.757812 15.042969 2.199219 15.382812 2.683594 15.617188 C 3.164062 15.859375 3.695312 16 4.242188 15.996094 C 5.226562 16 6.222656 15.539062 7.113281 14.636719 Z M 9.367188 1.84375 L 9.851562 2.328125 C 10.578125 1.609375 11.199219 1.371094 11.757812 1.371094 C 12.070312 1.371094 12.382812 1.449219 12.707031 1.609375 C 13.027344 1.769531 13.355469 2.011719 13.675781 2.332031 C 13.992188 2.648438 14.238281 2.976562 14.398438 3.300781 C 14.554688 3.621094 14.632812 3.933594 14.632812 4.25 C 14.632812 4.804688 14.394531 5.429688 13.679688 6.15625 C 12.820312 7.011719 12.308594 7.523438 12.007812 7.824219 C 11.710938 8.125 11.625 8.210938 11.625 8.210938 L 12.109375 8.695312 L 12.59375 8.210938 L 7.800781 3.414062 L 7.316406 3.898438 L 7.800781 4.382812 C 7.800781 4.382812 8.144531 4.039062 9.851562 2.328125 L 8.882812 1.359375 C 8.027344 2.214844 7.515625 2.726562 7.214844 3.027344 C 6.914062 3.328125 6.832031 3.414062 6.832031 3.414062 L 6.347656 3.898438 L 12.101562 9.652344 L 12.585938 9.171875 C 12.585938 9.171875 12.929688 8.828125 14.640625 7.117188 C 15.539062 6.226562 16 5.234375 16 4.246094 C 16 3.699219 15.859375 3.171875 15.621094 2.691406 C 15.382812 2.207031 15.046875 1.765625 14.644531 1.363281 C 14.242188 0.960938 13.800781 0.621094 13.316406 0.382812 C 12.832031 0.140625 12.304688 0 11.757812 0 C 10.769531 -0.00390625 9.773438 0.460938 8.882812 1.359375 Z M 7.316406 6.632812 L 6.832031 6.148438 L 5.121094 7.855469 L 6.089844 8.824219 L 7.800781 7.117188 L 6.832031 6.148438 L 7.316406 6.632812 L 6.832031 6.148438 L 5.121094 7.855469 L 6.089844 8.824219 L 7.800781 7.117188 L 6.832031 6.148438 Z M 9.367188 8.683594 L 8.882812 8.199219 L 7.175781 9.910156 L 8.144531 10.878906 L 9.851562 9.167969 L 8.882812 8.199219 L 9.367188 8.683594 L 8.882812 8.199219 L 7.175781 9.910156 L 8.144531 10.878906 L 9.851562 9.167969 L 8.882812 8.199219 Z M 9.367188 8.683594 "/>
</g>
</svg>
